<?xml version="1.0" encoding="utf-8"?>
<!-- Generator: Adobe Illustrator 23.0.3, SVG Export Plug-In . SVG Version: 6.00 Build 0)  -->
<svg version="1.1" id="圖層_1" focusable="false" xmlns="http://www.w3.org/2000/svg" xmlns:xlink="http://www.w3.org/1999/xlink"
	 x="0px" y="0px" viewBox="0 0 288 512" style="enable-background:new 0 0 288 512;" xml:space="preserve">
<style type="text/css">
	.st0{fill:#FFFFFF;}
</style>
<path class="st0" d="M216,464h-40V346.8c68.5-15.9,118-79.9,111.4-154.2l-16-178.1C270.7,6.3,263.9,0,255.7,0H32.3
	c-8.1,0-15,6.3-15.7,14.6l-16,178.1C-6.1,266.9,43.5,330.9,112,346.8V464H72c-22.1,0-40,17.9-40,40c0,4.4,3.6,8,8,8h208
	c4.4,0,8-3.6,8-8C256,481.9,238.1,464,216,464z M61.8,48h164.5l7.2,80H54.6L61.8,48z"/>
</svg>
