<?xml version="1.0" encoding="utf-8"?>
<!-- Generator: Adobe Illustrator 23.0.3, SVG Export Plug-In . SVG Version: 6.00 Build 0)  -->
<svg version="1.1" id="圖層_1" xmlns="http://www.w3.org/2000/svg" xmlns:xlink="http://www.w3.org/1999/xlink" x="0px" y="0px"
	 viewBox="0 0 18.2 18.2" style="enable-background:new 0 0 18.2 18.2;" xml:space="preserve">
<style type="text/css">
	.st0{fill:none;}
	.st1{fill:#ADA073;}
</style>
<path class="st0" d="M26,1.9h24v24H26V1.9z"/>
<path class="st1" d="M3.7,7.9c1.4,2.8,3.8,5.1,6.6,6.6l2.2-2.2c0.3-0.3,0.7-0.4,1-0.2c1.1,0.4,2.3,0.6,3.6,0.6c0.5,0,1,0.4,1,1v3.5
	c0,0.5-0.5,1-1,1c-9.4,0-17-7.6-17-17c0-0.5,0.5-1,1-1h3.5c0.6,0,1,0.5,1,1c0,1.2,0.2,2.4,0.6,3.6c0.1,0.3,0,0.7-0.2,1L3.7,7.9z"/>
</svg>
