<?xml version="1.0" encoding="utf-8"?>
<!-- Generator: Adobe Illustrator 23.0.3, SVG Export Plug-In . SVG Version: 6.00 Build 0)  -->
<svg version="1.1" xmlns="http://www.w3.org/2000/svg" xmlns:xlink="http://www.w3.org/1999/xlink" x="0px" y="0px" width="216.7px"
	 height="100px" viewBox="0 0 216.7 100" style="enable-background:new 0 0 216.7 100;" xml:space="preserve">
<style type="text/css">
	.st0{display:none;}
	.st1{display:inline;fill:#333333;}
	.st2{fill:#231815;}
	.st3{fill:#FFFFFF;}
	.st4{fill:#666666;}
	.st5{fill:#2B2725;}
</style>
<g id="圖層_2" class="st0">
	<rect x="-3.4" y="-2.5" class="st1" width="223.5" height="105"/>
</g>
<g id="圖層_1">
	<g>
		<g>
			<path class="st5" d="M115.1,29.6c-1,3.4-2.2,6.6-3.4,9.7c-1.2,3.1-2.4,5.8-3.5,8.1c-1.3,2.7-2.6,5.3-3.8,7.6
				c-1,1.8-1.9,3.5-2.6,4.8c-0.7,1.4-1.3,2.5-1.7,3.5c-0.4,1-0.7,1.8-0.9,2.4s-0.3,1.2-0.3,1.6c0,0.4,0.1,0.8,0.3,1s0.4,0.4,0.7,0.5
				c0.3,0.1,0.5,0.2,0.8,0.2c0.3,0,0.5,0,0.6,0c0.7,0,1.6-0.2,2.6-0.6c1-0.4,2.1-1,3.2-1.7c1.2-0.7,2.4-1.6,3.6-2.6
				c1.3-1,2.5-2.2,3.8-3.5s2.5-2.7,3.6-4.2c1.2-1.5,2.3-3.1,3.2-4.8c1.6-2.7,2.8-5.3,3.8-7.6c-0.6-1.2-1-2.4-1.3-3.6
				c-0.3-1.2-0.4-2.4-0.4-3.5c0-1.6,0.3-2.9,0.8-3.8s1.2-1.4,2.1-1.4c0.5,0,0.9,0.1,1.2,0.4c0.3,0.2,0.6,0.6,0.8,1
				c0.2,0.4,0.4,0.8,0.4,1.3c0.1,0.5,0.1,0.9,0.1,1.4c0,1-0.1,2.1-0.4,3.3s-0.7,2.6-1.2,4c-0.5,1.4-1.2,3-1.9,4.6
				c-0.8,1.6-1.6,3.3-2.6,4.9c-1,1.7-2.1,3.3-3.3,4.8c-1.2,1.5-2.4,3-3.8,4.3c-1.3,1.4-2.6,2.6-4,3.7c-1.3,1.1-2.6,2.1-3.9,2.9
				c-1.3,0.8-2.5,1.4-3.6,1.8c-1.1,0.4-2.1,0.7-3,0.7c-1.6,0-2.9-0.4-3.8-1.1c-0.9-0.7-1.4-1.9-1.4-3.5c0-0.9,0.1-1.8,0.4-2.6
				c0.2-0.9,0.6-1.8,1-2.9c0.5-1,1-2.1,1.7-3.4c0.7-1.2,1.5-2.6,2.3-4.1c-2,2.7-4.3,5.4-6.6,7.9c-2.4,2.6-4.9,4.8-7.6,6.8
				c-1.2,0.9-2.3,1.7-3.3,2.3c-1,0.6-1.9,1.1-2.8,1.5c-0.8,0.4-1.6,0.6-2.3,0.8c-0.7,0.2-1.3,0.2-1.8,0.2c-0.8,0-1.5-0.1-2.1-0.3
				c-0.6-0.2-1.1-0.5-1.4-0.9s-0.7-0.8-0.8-1.4c-0.2-0.5-0.3-1.1-0.3-1.7c0-1,0.2-2,0.5-2.9c0.3-0.9,0.8-1.9,1.4-2.8
				c0.7-1.1,1.5-2.2,2.4-3.5c0.9-1.3,1.9-2.6,2.9-4.1c1-1.4,2-2.9,3-4.3c1-1.5,1.9-2.9,2.7-4.4s1.4-2.9,1.9-4.2
				c0.5-1.4,0.7-2.7,0.7-3.9c0-1.9-0.4-3.6-1.1-5.2c-0.7-1.6-1.8-2.9-3.2-4.1s-3.1-2-5.1-2.6c-2-0.6-4.2-0.9-6.7-0.9
				c-3.4,0-6.5,0.5-9.3,1.5c-2.8,1-5.3,2.3-7.3,4.1c-2,1.7-3.6,3.8-4.8,6.1c-1.1,2.3-1.7,4.9-1.7,7.6c0,1.7,0.3,3.2,0.8,4.5
				c0.5,1.4,1.3,2.5,2.2,3.5c1,1,2.1,1.7,3.5,2.3c1.4,0.5,2.9,0.8,4.6,0.8c1.9,0,3.7-0.3,5.4-1c1.7-0.7,3.2-1.6,4.5-2.8
				s2.6-2.6,3.6-4.2c1.1-1.6,2-3.3,2.7-5.2l1.4,0.5c-2,4.9-4.6,8.7-7.9,11.2S62.4,58,57.9,58c-1.9,0-3.6-0.3-5.2-1
				c-1.6-0.6-2.9-1.5-4-2.7s-2-2.5-2.6-4.1c-0.6-1.6-0.9-3.4-0.9-5.3c0-2.6,0.4-4.9,1.3-7c0.9-2.1,2-3.9,3.4-5.5
				c1.4-1.6,3-2.9,4.9-4s3.7-2,5.6-2.7c1.9-0.7,3.8-1.2,5.6-1.5c1.8-0.3,3.5-0.5,4.9-0.5c2.7,0,5.3,0.3,7.6,1c2.3,0.7,4.4,1.7,6.1,3
				c1.7,1.3,3,3,4,4.9c1,1.9,1.4,4.2,1.4,6.8c0,1.9-0.4,3.9-1.1,6.2c-0.7,2.3-1.9,4.7-3.7,7.3c-1.6,2.4-3.1,4.5-4.4,6.2
				c-1.3,1.8-2.4,3.3-3.4,4.6c-0.9,1.3-1.7,2.4-2.2,3.2c-0.5,0.9-0.8,1.6-0.8,2.2c0,0.6,0.2,1.1,0.6,1.4c0.4,0.4,1,0.6,1.8,0.6
				c1.1,0,2.4-0.4,3.9-1.1c1.5-0.7,3.3-1.8,5.2-3.3c1.9-1.4,3.7-3,5.5-4.7s3.4-3.5,4.9-5.3c1.5-1.8,3-3.7,4.4-5.6
				c1.4-1.9,2.6-3.8,3.8-5.6c1.2-1.8,2.2-3.6,3.2-5.3c1-1.7,1.8-3.3,2.6-4.7s1.4-2.7,1.9-3.8c0.5-1.1,0.9-2,1.2-2.6L115.1,29.6z
				 M125.8,42c0.5-1.3,0.8-2.5,1-3.6c0.2-1.1,0.3-2,0.3-2.7c0-0.1,0-0.4,0-0.6c0-0.3-0.1-0.5-0.1-0.8c-0.1-0.3-0.2-0.5-0.3-0.7
				c-0.1-0.2-0.3-0.3-0.6-0.3c-0.3,0-0.6,0.3-0.9,1c-0.2,0.7-0.4,1.5-0.4,2.6c0,0.8,0.1,1.6,0.2,2.4C125.2,40.2,125.5,41.1,125.8,42
				z"/>
			<path class="st5" d="M136.8,46.4c-0.3,0.5-0.6,1.2-1.1,2.1c-0.5,0.9-1,1.8-1.6,2.9c-0.6,1-1.1,2.1-1.7,3.3
				c-0.6,1.1-1.1,2.2-1.6,3.3c-0.5,1.1-0.8,2.1-1.1,3c-0.3,0.9-0.4,1.7-0.4,2.4c0,0.6,0.1,1,0.4,1.2c0.2,0.2,0.6,0.3,1,0.3
				c0.8,0,1.7-0.3,2.5-0.8c0.8-0.6,1.6-1.3,2.4-2.2c0.8-0.9,1.6-1.9,2.3-3.1s1.5-2.3,2.3-3.5l1.1,0.9c-0.6,1.1-1.3,2.2-2,3.4
				c-0.7,1.2-1.6,2.3-2.5,3.4c-0.9,1-1.9,1.9-3,2.6c-1.1,0.7-2.3,1-3.6,1c-1.2,0-2.2-0.4-2.8-1.1c-0.7-0.7-1-1.7-1-2.9
				c0-1.4,0.3-2.8,1-4.3c0.6-1.5,1.4-3,2.4-4.4s2-2.9,3.1-4.2c1.1-1.4,2.1-2.6,3.1-3.7L136.8,46.4z M142.6,39.6
				c0,0.4-0.1,0.8-0.3,1.3c-0.2,0.4-0.5,0.8-0.8,1.2c-0.3,0.3-0.7,0.6-1.1,0.9c-0.4,0.2-0.8,0.3-1.2,0.3c-0.3,0-0.6-0.1-0.8-0.4
				c-0.2-0.3-0.3-0.6-0.3-0.9c0-0.3,0.1-0.7,0.2-1.2c0.1-0.5,0.3-0.9,0.6-1.3s0.5-0.7,0.9-1c0.3-0.3,0.7-0.4,1.2-0.4
				c0.4,0,0.8,0.2,1.1,0.5C142.4,38.9,142.6,39.2,142.6,39.6z"/>
			<path class="st5" d="M149.7,43.4c-0.2,0.2-0.3,0.5-0.5,0.7c-0.2,0.3-0.3,0.6-0.4,1c-0.1,0.4-0.2,0.8-0.2,1.3c0,0.4,0.1,1,0.3,1.8
				c0.2,0.7,0.4,1.6,0.7,2.5s0.5,2,0.7,3.1c0.2,1.1,0.3,2.3,0.3,3.5c0,1.7-0.2,3.3-0.7,4.6c-0.5,1.3-1.1,2.5-1.9,3.4
				c1.6-0.9,3.2-2.1,4.7-3.7c1.5-1.6,3.1-3.7,4.6-6.1l1,0.9c-0.9,1.5-1.9,2.9-3,4.3c-1.1,1.4-2.3,2.7-3.7,3.8
				c-1.3,1.1-2.8,2.1-4.3,2.8c-1.5,0.7-3.2,1.1-4.9,1.1c-1.5,0-2.8-0.4-3.9-1.1c-1.1-0.7-1.7-1.8-2-3.3l1.1-0.2
				c0,0.1,0.1,0.3,0.2,0.6c0.1,0.3,0.3,0.5,0.5,0.8c0.2,0.3,0.6,0.5,1,0.7c0.4,0.2,0.9,0.3,1.6,0.3c0.8,0,1.5-0.2,2.2-0.6
				c0.6-0.4,1.2-0.9,1.7-1.5c0.5-0.6,0.9-1.3,1.2-2.1c0.3-0.8,0.6-1.6,0.8-2.4c0.2-0.8,0.3-1.7,0.4-2.5c0.1-0.8,0.1-1.5,0.1-2.2
				c0-0.7,0-1.4-0.1-2.2c-0.1-0.8-0.1-1.6-0.2-2.3s-0.1-1.4-0.2-1.9c-0.1-0.5-0.1-0.9-0.1-1.1v-0.1c-0.3,0.3-0.6,0.7-1,1.3
				c-0.4,0.6-0.8,1.2-1.2,1.8c-0.4,0.7-0.8,1.3-1.3,2c-0.4,0.7-0.8,1.3-1.1,1.8c-0.3,0.6-0.6,1-0.8,1.4c-0.2,0.4-0.3,0.5-0.3,0.6
				l-1.1-0.9c0,0,0.3-0.5,0.8-1.3c0.5-0.9,1.1-2,2-3.3c0.8-1.3,1.7-2.8,2.8-4.4s2.1-3.2,3.2-4.7l1.2,1
				C150,42.9,149.8,43.1,149.7,43.4z"/>
			<path class="st5" d="M159.7,59.9c0,0.2-0.1,0.5-0.1,0.7c0,0.2,0,0.5,0,0.7c0,0.7,0.1,1.4,0.3,2.1c0.2,0.7,0.5,1.3,1,1.8
				s0.9,0.9,1.6,1.2c0.6,0.3,1.3,0.4,2.1,0.4c2.7,0,5.3-0.9,7.8-2.7c2.5-1.8,5-4.7,7.5-8.7l1,0.9c-1.4,2.3-2.7,4.2-4.1,5.7
				s-2.8,2.8-4.2,3.8c-1.4,1-2.7,1.7-4.1,2.1c-1.3,0.4-2.6,0.6-3.8,0.6c-0.9,0-1.8-0.1-2.8-0.4c-1-0.2-1.9-0.7-2.7-1.2
				s-1.5-1.3-2.1-2.3c-0.5-1-0.8-2.2-0.8-3.6c0-1.5,0.3-3,0.8-4.4c0.5-1.4,1.2-2.8,2-4c0.8-1.2,1.8-2.4,2.9-3.4s2.2-1.9,3.3-2.6
				c1.1-0.7,2.2-1.3,3.3-1.7c1.1-0.4,2-0.6,2.8-0.6c0.5,0,1.1,0.1,1.6,0.2c0.6,0.2,1,0.4,1.5,0.8c0.4,0.3,0.8,0.8,1.1,1.4
				c0.3,0.6,0.4,1.3,0.4,2.1c0,1.1-0.3,2.1-0.8,3.1c-0.5,1-1.2,1.8-2,2.6c-0.8,0.8-1.8,1.5-2.9,2.2s-2.3,1.2-3.5,1.6
				c-1.2,0.5-2.4,0.8-3.7,1.1C162,59.7,160.8,59.9,159.7,59.9z M160,58.6c1.4-0.1,2.7-0.4,3.9-0.9c1.2-0.4,2.3-1,3.3-1.6
				s1.9-1.3,2.7-2c0.8-0.7,1.5-1.5,2-2.2c0.5-0.8,0.9-1.5,1.2-2.2c0.3-0.7,0.4-1.3,0.4-1.9c0-0.6-0.1-1-0.4-1.3
				c-0.3-0.3-0.7-0.5-1.1-0.5c-0.9,0-1.9,0.3-3,1s-2.3,1.5-3.4,2.7c-1.1,1.1-2.2,2.5-3.2,4C161.4,55.1,160.6,56.8,160,58.6z"/>
			<path class="st5" d="M197.4,47.2c0-0.7-0.3-1.2-0.8-1.6c-0.5-0.4-1.3-0.6-2.5-0.6c-0.9,0-1.8,0.2-2.8,0.6s-1.8,0.9-2.7,1.6
				c-0.9,0.7-1.7,1.5-2.4,2.5c-0.7,1-1.4,2-1.9,3.1s-1,2.3-1.3,3.6c-0.3,1.3-0.5,2.5-0.5,3.8c0,1,0.1,1.9,0.3,2.6
				c0.2,0.7,0.5,1.3,1,1.8c0.4,0.5,0.9,0.8,1.5,1c0.6,0.2,1.2,0.3,1.9,0.3c1.4,0,2.8-0.3,4.1-1s2.6-1.5,3.8-2.5
				c1.2-1,2.3-2.1,3.3-3.4c1-1.2,1.9-2.5,2.7-3.7l1.1,0.9c-1.1,1.9-2.3,3.5-3.5,4.9s-2.5,2.6-3.8,3.5c-1.3,0.9-2.6,1.7-4,2.1
				c-1.4,0.5-2.7,0.7-4,0.7c-1,0-2-0.2-2.9-0.5c-0.9-0.3-1.8-0.8-2.5-1.4s-1.3-1.4-1.7-2.4c-0.4-1-0.6-2.2-0.6-3.5
				c0-1.6,0.2-3.1,0.7-4.5c0.5-1.4,1.1-2.7,1.8-3.9s1.7-2.3,2.7-3.3c1-1,2.1-1.8,3.2-2.5c1.1-0.7,2.2-1.2,3.3-1.6
				c1.1-0.4,2.2-0.5,3.2-0.5c1,0,1.8,0.1,2.5,0.4c0.6,0.3,1.1,0.6,1.5,1c0.4,0.4,0.6,0.8,0.8,1.2c0.1,0.4,0.2,0.8,0.2,1.1
				c0,0.5-0.1,1-0.2,1.6c-0.1,0.6-0.3,1.1-0.6,1.5s-0.6,0.8-1,1.2c-0.4,0.3-0.8,0.5-1.2,0.5c-0.5,0-0.8-0.1-1.2-0.4
				c-0.3-0.3-0.5-0.7-0.5-1.1c0,0,0-0.1,0-0.4c0-0.2,0.1-0.5,0.3-0.7c0.2-0.3,0.4-0.5,0.8-0.7c0.3-0.2,0.8-0.3,1.4-0.3h0.4
				C197.3,47.9,197.4,47.6,197.4,47.2z"/>
		</g>
		<g>
			<g>
				<path class="st4" d="M138,81h1.3l-3.6,8.9h-0.3l-2.9-7.2l-2.9,7.2h-0.3l-3.6-8.9h1.3l2.4,6.1l2.4-6.1h1.2l2.5,6.1L138,81z"/>
				<path class="st4" d="M140.6,81.6c0.2,0,0.4,0.1,0.5,0.2s0.2,0.3,0.2,0.5c0,0.2-0.1,0.3-0.2,0.5s-0.3,0.2-0.5,0.2
					c-0.2,0-0.3-0.1-0.5-0.2c-0.1-0.1-0.2-0.3-0.2-0.5c0-0.2,0.1-0.3,0.2-0.5C140.3,81.6,140.5,81.6,140.6,81.6z M140.1,84h1.2v5.8
					h-1.2V84z"/>
				<path class="st4" d="M142.6,89.4v-1.2c0.3,0.2,0.7,0.4,1,0.6c0.3,0.1,0.6,0.2,0.9,0.2c0.2,0,0.4-0.1,0.6-0.2s0.3-0.3,0.3-0.4
					c0-0.2-0.1-0.3-0.2-0.4c-0.1-0.1-0.4-0.3-0.7-0.5c-0.7-0.4-1.2-0.8-1.5-1.1c-0.2-0.3-0.3-0.6-0.3-1c0-0.4,0.2-0.8,0.5-1.1
					s0.8-0.4,1.3-0.4c0.6,0,1.2,0.2,1.8,0.5v1.1c-0.7-0.4-1.2-0.6-1.7-0.6c-0.2,0-0.4,0-0.5,0.1c-0.1,0.1-0.2,0.2-0.2,0.4
					c0,0.1,0.1,0.3,0.2,0.4c0.1,0.1,0.3,0.3,0.7,0.4l0.4,0.2c1,0.5,1.5,1.2,1.5,1.8c0,0.5-0.2,0.9-0.6,1.2c-0.4,0.3-0.9,0.5-1.4,0.5
					c-0.3,0-0.7,0-0.9-0.1C143.3,89.7,143,89.6,142.6,89.4z"/>
				<path class="st4" d="M152.8,87h-4.1c0,0.6,0.2,1,0.6,1.3c0.3,0.3,0.8,0.5,1.3,0.5c0.8,0,1.5-0.2,2.1-0.7v1.1
					c-0.4,0.2-0.7,0.4-1.1,0.5c-0.3,0.1-0.8,0.2-1.2,0.2c-0.6,0-1.2-0.1-1.6-0.4c-0.4-0.3-0.7-0.6-1-1.1c-0.2-0.4-0.4-1-0.4-1.6
					c0-0.9,0.2-1.6,0.8-2.2c0.5-0.6,1.2-0.8,2-0.8c0.8,0,1.4,0.3,1.8,0.8c0.5,0.5,0.7,1.3,0.7,2.2V87z M148.8,86.3h2.9
					c0-0.5-0.2-0.8-0.4-1.1c-0.2-0.2-0.6-0.4-1-0.4s-0.8,0.1-1,0.4C149,85.5,148.8,85.9,148.8,86.3z"/>
				<path class="st4" d="M158.4,88.5v1.1c-0.6,0.2-1.1,0.3-1.7,0.3c-0.9,0-1.6-0.3-2.2-0.8c-0.5-0.5-0.8-1.3-0.8-2.2
					c0-0.9,0.3-1.7,0.8-2.2s1.2-0.8,2.1-0.8c0.3,0,0.6,0,0.8,0.1c0.2,0.1,0.5,0.2,0.9,0.3v1.2c-0.6-0.4-1.1-0.6-1.6-0.6
					c-0.5,0-0.9,0.2-1.3,0.5c-0.3,0.4-0.5,0.8-0.5,1.4c0,0.6,0.2,1.1,0.5,1.4s0.8,0.5,1.5,0.5C157.3,88.9,157.8,88.7,158.4,88.5z"/>
				<path class="st4" d="M163.4,89.8V81h2.8c0.8,0,1.5,0.2,2,0.7c0.5,0.5,0.8,1.1,0.8,1.8c0,0.5-0.1,1-0.4,1.4
					c-0.3,0.4-0.6,0.7-1.1,0.9c-0.4,0.2-1.1,0.3-1.9,0.3h-0.9v3.8H163.4z M166,82.1h-1.3v2.8h1.4c0.5,0,0.9-0.1,1.2-0.4
					c0.3-0.2,0.4-0.6,0.4-1C167.7,82.6,167.1,82.1,166,82.1z"/>
				<path class="st4" d="M169.1,84.9l2.2-2.1V84h1.8v1h-1.8v2.8c0,0.7,0.3,1,0.8,1c0.4,0,0.8-0.1,1.3-0.4v1.1
					c-0.4,0.2-0.9,0.4-1.4,0.4c-0.5,0-1-0.2-1.3-0.5c-0.1-0.1-0.2-0.2-0.3-0.3c-0.1-0.1-0.1-0.3-0.2-0.5s-0.1-0.5-0.1-1.1V85h-1
					V84.9z"/>
				<path class="st4" d="M179.2,87h-4.1c0,0.6,0.2,1,0.6,1.3c0.3,0.3,0.8,0.5,1.3,0.5c0.8,0,1.5-0.2,2.1-0.7v1.1
					c-0.4,0.2-0.7,0.4-1.1,0.5c-0.3,0.1-0.8,0.2-1.2,0.2c-0.6,0-1.2-0.1-1.6-0.4c-0.4-0.3-0.7-0.6-1-1.1c-0.2-0.4-0.4-1-0.4-1.6
					c0-0.9,0.2-1.6,0.8-2.2c0.5-0.6,1.2-0.8,2-0.8c0.8,0,1.4,0.3,1.8,0.8c0.5,0.5,0.7,1.3,0.7,2.2V87z M175.1,86.3h2.9
					c0-0.5-0.2-0.8-0.4-1.1c-0.2-0.2-0.6-0.4-1-0.4s-0.8,0.1-1,0.4C175.4,85.5,175.2,85.9,175.1,86.3z"/>
				<path class="st4" d="M184.2,81h1.3v7.7h4v1.2h-5.2V81z"/>
				<path class="st4" d="M189.6,84.9l2.2-2.1V84h1.8v1h-1.8v2.8c0,0.7,0.3,1,0.8,1c0.4,0,0.8-0.1,1.3-0.4v1.1
					c-0.4,0.2-0.9,0.4-1.4,0.4c-0.5,0-1-0.2-1.3-0.5c-0.1-0.1-0.2-0.2-0.3-0.3c-0.1-0.1-0.1-0.3-0.2-0.5s-0.1-0.5-0.1-1.1V85h-1
					V84.9z"/>
				<path class="st4" d="M198.6,81h1.2v8.8h-2.5c-0.9,0-1.5-0.3-2.1-0.8s-0.8-1.3-0.8-2.2c0-0.9,0.3-1.6,0.8-2.1
					c0.5-0.6,1.2-0.8,2.1-0.8c0.4,0,0.8,0.1,1.3,0.2V81z M198.6,88.8v-3.7c-0.4-0.2-0.7-0.3-1.1-0.3c-0.6,0-1,0.2-1.4,0.6
					c-0.3,0.4-0.5,0.9-0.5,1.5c0,0.6,0.1,1.1,0.4,1.4c0.2,0.2,0.4,0.3,0.6,0.4s0.6,0.1,1.1,0.1H198.6z"/>
			</g>
		</g>
		<path class="st5" d="M74.4,10.4c0-0.1,0-0.2,0-0.3l0,0l0-0.3c0-0.1,0-0.2-0.1-0.3c-0.1-0.4-0.3-0.8-0.4-1.1
			c-0.3-0.5-0.7-1-1.2-1.4c-0.8-0.6-1.6-1.1-2.2-1.4c-0.6-0.3-1.3-0.6-2-0.8c-1.1-0.4-2.3-0.7-3.7-1c-2.1-0.5-4.2-0.8-6.4-1.1
			c-1.7-0.2-3.4-0.4-4.9-0.5C52.1,2.1,51,2.1,50.2,2l-1.1,0C48,2,47,2.8,47,4c0,1.1,0.8,2.1,1.9,2.1l1.2,0.1c0.7,0,1.7,0.1,3,0.2
			c1.2,0.1,2.8,0.3,4.7,0.5c1.8,0.3,3.8,0.6,6,1.2C65,8.4,66,8.7,67,9.1c0.5,0.2,1,0.4,1.5,0.7c0.2,0.1,0.4,0.2,0.6,0.4
			c-0.9,0.4-2,0.7-3,1c-1.2,0.3-2.6,0.5-4.1,0.7c-1.5,0.2-2.9,0.3-4.3,0.4c-3.2,0.2-6.2,0.2-9,0.1c-2.8-0.1-5.8-0.3-8.9-0.7
			c-1.4-0.2-2.9-0.4-4.3-0.7c-1.5-0.3-2.8-0.6-4-0.9c-1-0.3-2.1-0.7-3-1.2c0.5-0.5,0.8-1,1.1-1.6c0.3-0.8,0.2-1.7-0.4-2.3
			c-0.6-0.6-1.5-0.8-2.3-0.4c-0.6,0.3-1.2,0.6-1.7,0.9c-0.5,0.4-1,0.8-1.3,1.3c0,0-0.1,0.2-0.1,0.2l-0.4,0.6C23,8,22.6,8.7,22,9.7
			c-1.6,2.8-2.9,5.6-4,8.5c-1.7,4.3-2.8,8.7-3.3,13c-0.3,2.6-0.4,5.2-0.2,7.7c0.2,2.8,0.8,5.4,1.7,7.9c0.1,0.2,0.1,0.4,0.2,0.6
			c0.2,0.4,0.3,0.9,0.5,1.3l0.8,1.7c0,0.1,0.1,0.1,0.1,0.2l0.9,1.6c0.2,0.3,0.4,0.7,0.6,1l0.6,0.8c1.6,2.1,3.3,4,5.3,5.6l0.4,0.4
			c0.3,0.3,0.6,0.5,1,0.8l1.3,1c0.7,0.6,1.4,1,2.1,1.5c0.3,0.2,0.5,0.3,0.8,0.5c0.3,0.2,0.7,0.4,1,0.6c0.1,0.1,0.3,0.2,0.5,0.3
			c0.2,0.1,0.3,0.2,0.5,0.3c0.3,0.2,0.6,0.4,1,0.5c0.3,0.1,0.5,0.2,0.8,0.4c0.7,0.3,1.3,0.7,1.9,0.9c1.8,0.8,3.5,1.3,5.1,1.8
			c0,0,0.1,0,0.1,0c1.2,0.3,2.1,1.2,2.4,2.4c0.6,2.8,1.1,7.1,0.3,11.7c-5.3-0.1-10.3,0.3-14.1,1.2c-5.1,1.2-7.8,3.1-7.9,5.7
			c-0.1,2.6,2.4,4.7,7.5,6.2c4.1,1.2,9.6,2,15.5,2.2c0.4,0,1.3,0,2.5,0c6.2,0,20.8-0.7,21-6.8c0.2-5.8-12.7-7.6-18.8-8.2
			c0-0.1,0-0.3,0-0.5c0.3-9.6,0.6-13,0.8-14.3c0.1-0.7-0.1-1.4-0.5-1.9c-0.4-0.5-1.1-0.9-1.7-0.9l-2.1-0.2l-0.3,0
			c-0.9-0.1-2.1-0.4-3.5-0.7c-1.4-0.4-3-0.9-4.6-1.7c-0.5-0.2-1.1-0.5-1.7-0.8c-0.3-0.1-0.5-0.3-0.8-0.4c-0.2-0.1-0.5-0.3-0.7-0.4
			c-0.2-0.1-0.3-0.2-0.5-0.3c-0.2-0.1-0.3-0.2-0.5-0.3c-0.2-0.1-0.5-0.3-0.7-0.5c-0.3-0.2-0.6-0.4-0.8-0.6c-0.6-0.4-1.2-0.8-1.7-1.3
			l-1.3-1c-0.3-0.2-0.5-0.4-0.8-0.7l-0.5-0.5c-1.6-1.4-3.1-3.1-4.4-4.9l-0.5-0.8c-0.1-0.2-0.3-0.4-0.4-0.6l-0.6-1l-1-2.1
			c-0.1-0.3-0.2-0.6-0.4-0.9c-0.1-0.2-0.2-0.4-0.2-0.6c-0.7-2.1-1.1-4.3-1.3-6.7c-0.1-2.2-0.1-4.4,0.3-6.7c0.5-3.8,1.6-7.8,3.2-11.7
			c1-2.4,2.1-4.7,3.4-7c1.2,0.7,2.4,1.2,3.5,1.6c2.6,0.9,5.6,1.6,9.2,2.1c2.8,0.4,5.9,0.7,9.5,0.9c3.7,0.1,6.7,0,9.5-0.2
			c3.6-0.3,6.6-0.8,9.3-1.5c1.4-0.4,3.1-0.9,4.7-1.9c0.7-0.5,1.9-1.3,2.3-3c0-0.1,0-0.1,0-0.2l0-0.1l0,0
			C74.4,10.6,74.4,10.5,74.4,10.4z M45.6,93.4c-0.4,0-0.8,0-1.1,0l3.9-0.6c1.3-0.2,2.2-1.4,2.1-2.7c0-0.4-0.1-1.1-0.1-2.4
			c8.1,0.7,12.3,2.5,13.6,3.4C62.2,92.2,55.8,93.8,45.6,93.4z"/>
	</g>
</g>
</svg>
