<?xml version="1.0" encoding="utf-8"?>
<!-- Generator: Adobe Illustrator 23.0.3, SVG Export Plug-In . SVG Version: 6.00 Build 0)  -->
<svg version="1.1" xmlns="http://www.w3.org/2000/svg" xmlns:xlink="http://www.w3.org/1999/xlink" x="0px" y="0px" width="216.7px"
	 height="100px" viewBox="0 0 216.7 100" style="enable-background:new 0 0 216.7 100;" xml:space="preserve">
<style type="text/css">
	.st0{display:none;}
	.st1{display:inline;fill:#333333;}
	.st2{fill:#2B2725;}
	.st3{fill:#FFFFFF;}
</style>
<g id="圖層_2" class="st0">
	<rect x="-3.4" y="-2.5" class="st1" width="223.5" height="105"/>
</g>
<g id="圖層_1">
	<g>
		<g>
			<path class="st2" d="M112.2,31.6c-1,3.4-2.2,6.6-3.4,9.7c-1.2,3.1-2.4,5.8-3.5,8.1c-1.3,2.7-2.6,5.3-3.8,7.6
				c-1,1.8-1.9,3.5-2.6,4.8c-0.7,1.4-1.3,2.5-1.7,3.5c-0.4,1-0.7,1.8-0.9,2.4s-0.3,1.2-0.3,1.6c0,0.4,0.1,0.8,0.3,1s0.4,0.4,0.7,0.5
				c0.3,0.1,0.5,0.2,0.8,0.2c0.3,0,0.5,0,0.6,0c0.7,0,1.6-0.2,2.6-0.6c1-0.4,2.1-1,3.2-1.7c1.2-0.7,2.4-1.6,3.6-2.6
				c1.3-1,2.5-2.2,3.8-3.5s2.5-2.7,3.6-4.2c1.2-1.5,2.3-3.1,3.2-4.8c1.6-2.7,2.8-5.3,3.8-7.6c-0.6-1.2-1-2.4-1.3-3.6
				c-0.3-1.2-0.4-2.4-0.4-3.5c0-1.6,0.3-2.9,0.8-3.8s1.2-1.4,2.1-1.4c0.5,0,0.9,0.1,1.2,0.4c0.3,0.2,0.6,0.6,0.8,1
				c0.2,0.4,0.4,0.8,0.4,1.3c0.1,0.5,0.1,0.9,0.1,1.4c0,1-0.1,2.1-0.4,3.3s-0.7,2.6-1.2,4c-0.5,1.4-1.2,3-1.9,4.6
				c-0.8,1.6-1.6,3.3-2.6,4.9c-1,1.7-2.1,3.3-3.3,4.8c-1.2,1.5-2.4,3-3.8,4.3c-1.3,1.4-2.6,2.6-4,3.7c-1.3,1.1-2.6,2.1-3.9,2.9
				c-1.3,0.8-2.5,1.4-3.6,1.8c-1.1,0.4-2.1,0.7-3,0.7c-1.6,0-2.9-0.4-3.8-1.1C93.5,71,93,69.8,93,68.2c0-0.9,0.1-1.8,0.4-2.6
				c0.2-0.9,0.6-1.8,1-2.9c0.5-1,1-2.1,1.7-3.4c0.7-1.2,1.5-2.6,2.3-4.1c-2,2.7-4.3,5.4-6.6,7.9c-2.4,2.6-4.9,4.8-7.6,6.8
				c-1.2,0.9-2.3,1.7-3.3,2.3c-1,0.6-1.9,1.1-2.8,1.5c-0.8,0.4-1.6,0.6-2.3,0.8c-0.7,0.2-1.3,0.2-1.8,0.2c-0.8,0-1.5-0.1-2.1-0.3
				c-0.6-0.2-1.1-0.5-1.4-0.9s-0.7-0.8-0.8-1.4c-0.2-0.5-0.3-1.1-0.3-1.7c0-1,0.2-2,0.5-2.9c0.3-0.9,0.8-1.9,1.4-2.8
				c0.7-1.1,1.5-2.2,2.4-3.5c0.9-1.3,1.9-2.6,2.9-4.1c1-1.4,2-2.9,3-4.3c1-1.5,1.9-2.9,2.7-4.4s1.4-2.9,1.9-4.2
				c0.5-1.4,0.7-2.7,0.7-3.9c0-1.9-0.4-3.6-1.1-5.2S82,32,80.6,30.9s-3.1-2-5.1-2.6c-2-0.6-4.2-0.9-6.7-0.9c-3.4,0-6.5,0.5-9.3,1.5
				c-2.8,1-5.3,2.3-7.3,4.1c-2,1.7-3.6,3.8-4.8,6.1c-1.1,2.3-1.7,4.9-1.7,7.6c0,1.7,0.3,3.2,0.8,4.5c0.5,1.4,1.3,2.5,2.2,3.5
				c1,1,2.1,1.7,3.5,2.3c1.4,0.5,2.9,0.8,4.6,0.8c1.9,0,3.7-0.3,5.4-1c1.7-0.7,3.2-1.6,4.5-2.8s2.6-2.6,3.6-4.2
				c1.1-1.6,2-3.3,2.7-5.2l1.4,0.5c-2,4.9-4.6,8.7-7.9,11.2S59.5,60,55,60c-1.9,0-3.6-0.3-5.2-1c-1.6-0.6-2.9-1.5-4-2.7
				s-2-2.5-2.6-4.1c-0.6-1.6-0.9-3.4-0.9-5.3c0-2.6,0.4-4.9,1.3-7c0.9-2.1,2-3.9,3.4-5.5c1.4-1.6,3-2.9,4.9-4s3.7-2,5.6-2.7
				c1.9-0.7,3.8-1.2,5.6-1.5c1.8-0.3,3.5-0.5,4.9-0.5c2.7,0,5.3,0.3,7.6,1c2.3,0.7,4.4,1.7,6.1,3c1.7,1.3,3,3,4,4.9
				c1,1.9,1.4,4.2,1.4,6.8c0,1.9-0.4,3.9-1.1,6.2c-0.7,2.3-1.9,4.7-3.7,7.3c-1.6,2.4-3.1,4.5-4.4,6.2c-1.3,1.8-2.4,3.3-3.4,4.6
				C73.7,67,73,68,72.5,68.9c-0.5,0.9-0.8,1.6-0.8,2.2c0,0.6,0.2,1.1,0.6,1.4c0.4,0.4,1,0.6,1.8,0.6c1.1,0,2.4-0.4,3.9-1.1
				c1.5-0.7,3.3-1.8,5.2-3.3c1.9-1.4,3.7-3,5.5-4.7s3.4-3.5,4.9-5.3c1.5-1.8,3-3.7,4.4-5.6c1.4-1.9,2.6-3.8,3.8-5.6
				c1.2-1.8,2.2-3.6,3.2-5.3c1-1.7,1.8-3.3,2.6-4.7s1.4-2.7,1.9-3.8c0.5-1.1,0.9-2,1.2-2.6L112.2,31.6z M122.9,44
				c0.5-1.3,0.8-2.5,1-3.6c0.2-1.1,0.3-2,0.3-2.7c0-0.1,0-0.4,0-0.6c0-0.3-0.1-0.5-0.1-0.8c-0.1-0.3-0.2-0.5-0.3-0.7
				c-0.1-0.2-0.3-0.3-0.6-0.3c-0.3,0-0.6,0.3-0.9,1c-0.2,0.7-0.4,1.5-0.4,2.6c0,0.8,0.1,1.6,0.2,2.4C122.3,42.2,122.6,43.1,122.9,44
				z"/>
			<path class="st2" d="M133.9,48.4c-0.3,0.5-0.6,1.2-1.1,2.1c-0.5,0.9-1,1.8-1.6,2.9c-0.6,1-1.1,2.1-1.7,3.3
				c-0.6,1.1-1.1,2.2-1.6,3.3c-0.5,1.1-0.8,2.1-1.1,3c-0.3,0.9-0.4,1.7-0.4,2.4c0,0.6,0.1,1,0.4,1.2c0.2,0.2,0.6,0.3,1,0.3
				c0.8,0,1.7-0.3,2.5-0.8c0.8-0.6,1.6-1.3,2.4-2.2c0.8-0.9,1.6-1.9,2.3-3.1s1.5-2.3,2.3-3.5l1.1,0.9c-0.6,1.1-1.3,2.2-2,3.4
				c-0.7,1.2-1.6,2.3-2.5,3.4c-0.9,1-1.9,1.9-3,2.6c-1.1,0.7-2.3,1-3.6,1c-1.2,0-2.2-0.4-2.8-1.1c-0.7-0.7-1-1.7-1-2.9
				c0-1.4,0.3-2.8,1-4.3c0.6-1.5,1.4-3,2.4-4.4s2-2.9,3.1-4.2c1.1-1.4,2.1-2.6,3.1-3.7L133.9,48.4z M139.7,41.6
				c0,0.4-0.1,0.8-0.3,1.3c-0.2,0.4-0.5,0.8-0.8,1.2c-0.3,0.3-0.7,0.6-1.1,0.9c-0.4,0.2-0.8,0.3-1.2,0.3c-0.3,0-0.6-0.1-0.8-0.4
				c-0.2-0.3-0.3-0.6-0.3-0.9c0-0.3,0.1-0.7,0.2-1.2c0.1-0.5,0.3-0.9,0.6-1.3s0.5-0.7,0.9-1c0.3-0.3,0.7-0.4,1.2-0.4
				c0.4,0,0.8,0.2,1.1,0.5C139.5,40.9,139.7,41.2,139.7,41.6z"/>
			<path class="st2" d="M146.8,45.4c-0.2,0.2-0.3,0.5-0.5,0.7c-0.2,0.3-0.3,0.6-0.4,1c-0.1,0.4-0.2,0.8-0.2,1.3c0,0.4,0.1,1,0.3,1.8
				c0.2,0.7,0.4,1.6,0.7,2.5s0.5,2,0.7,3.1c0.2,1.1,0.3,2.3,0.3,3.5c0,1.7-0.2,3.3-0.7,4.6c-0.5,1.3-1.1,2.5-1.9,3.4
				c1.6-0.9,3.2-2.1,4.7-3.7c1.5-1.6,3.1-3.7,4.6-6.1l1,0.9c-0.9,1.5-1.9,2.9-3,4.3c-1.1,1.4-2.3,2.7-3.7,3.8
				c-1.3,1.1-2.8,2.1-4.3,2.8c-1.5,0.7-3.2,1.1-4.9,1.1c-1.5,0-2.8-0.4-3.9-1.1c-1.1-0.7-1.7-1.8-2-3.3l1.1-0.2
				c0,0.1,0.1,0.3,0.2,0.6c0.1,0.3,0.3,0.5,0.5,0.8c0.2,0.3,0.6,0.5,1,0.7c0.4,0.2,0.9,0.3,1.6,0.3c0.8,0,1.5-0.2,2.2-0.6
				c0.6-0.4,1.2-0.9,1.7-1.5c0.5-0.6,0.9-1.3,1.2-2.1c0.3-0.8,0.6-1.6,0.8-2.4c0.2-0.8,0.3-1.7,0.4-2.5c0.1-0.8,0.1-1.5,0.1-2.2
				c0-0.7,0-1.4-0.1-2.2c-0.1-0.8-0.1-1.6-0.2-2.3s-0.1-1.4-0.2-1.9c-0.1-0.5-0.1-0.9-0.1-1.1v-0.1c-0.3,0.3-0.6,0.7-1,1.3
				c-0.4,0.6-0.8,1.2-1.2,1.8c-0.4,0.7-0.8,1.3-1.3,2c-0.4,0.7-0.8,1.3-1.1,1.8c-0.3,0.6-0.6,1-0.8,1.4c-0.2,0.4-0.3,0.5-0.3,0.6
				l-1.1-0.9c0,0,0.3-0.5,0.8-1.3c0.5-0.9,1.1-2,2-3.3c0.8-1.3,1.7-2.8,2.8-4.4s2.1-3.2,3.2-4.7l1.2,1
				C147.1,44.9,146.9,45.1,146.8,45.4z"/>
			<path class="st2" d="M156.8,61.9c0,0.2-0.1,0.5-0.1,0.7c0,0.2,0,0.5,0,0.7c0,0.7,0.1,1.4,0.3,2.1c0.2,0.7,0.5,1.2,1,1.8
				s0.9,0.9,1.6,1.2c0.6,0.3,1.3,0.4,2.1,0.4c2.7,0,5.3-0.9,7.8-2.7c2.5-1.8,5-4.7,7.5-8.7l1,0.9c-1.4,2.3-2.7,4.2-4.1,5.7
				s-2.8,2.8-4.2,3.8c-1.4,1-2.7,1.7-4.1,2.1c-1.3,0.4-2.6,0.6-3.8,0.6c-0.9,0-1.8-0.1-2.8-0.4c-1-0.2-1.9-0.7-2.7-1.2
				s-1.5-1.3-2.1-2.3c-0.5-1-0.8-2.2-0.8-3.6c0-1.5,0.3-3,0.8-4.4c0.5-1.4,1.2-2.8,2-4c0.8-1.2,1.8-2.4,2.9-3.4s2.2-1.9,3.3-2.6
				c1.1-0.7,2.2-1.3,3.3-1.7c1.1-0.4,2-0.6,2.8-0.6c0.5,0,1.1,0.1,1.6,0.2c0.6,0.2,1,0.4,1.5,0.8c0.4,0.3,0.8,0.8,1.1,1.4
				c0.3,0.6,0.4,1.3,0.4,2.1c0,1.1-0.3,2.1-0.8,3.1c-0.5,1-1.2,1.8-2,2.6c-0.8,0.8-1.8,1.5-2.9,2.2s-2.3,1.2-3.5,1.6
				c-1.2,0.5-2.4,0.8-3.7,1.1C159.1,61.7,157.9,61.9,156.8,61.9z M157.1,60.6c1.4-0.1,2.7-0.4,3.9-0.9c1.2-0.4,2.3-1,3.3-1.6
				s1.9-1.3,2.7-2c0.8-0.7,1.5-1.5,2-2.2c0.5-0.8,0.9-1.5,1.2-2.2c0.3-0.7,0.4-1.3,0.4-1.9c0-0.6-0.1-1-0.4-1.3
				c-0.3-0.3-0.7-0.5-1.1-0.5c-0.9,0-1.9,0.3-3,1s-2.3,1.5-3.4,2.7c-1.1,1.1-2.2,2.5-3.2,4C158.5,57.1,157.7,58.8,157.1,60.6z"/>
			<path class="st2" d="M194.5,49.2c0-0.7-0.3-1.2-0.8-1.6c-0.5-0.4-1.3-0.6-2.5-0.6c-0.9,0-1.8,0.2-2.8,0.6s-1.8,0.9-2.7,1.6
				c-0.9,0.7-1.7,1.5-2.4,2.5c-0.7,1-1.4,2-1.9,3.1s-1,2.3-1.3,3.6c-0.3,1.3-0.5,2.5-0.5,3.8c0,1,0.1,1.9,0.3,2.6
				c0.2,0.7,0.5,1.3,1,1.8c0.4,0.5,0.9,0.8,1.5,1c0.6,0.2,1.2,0.3,1.9,0.3c1.4,0,2.8-0.3,4.1-1s2.6-1.5,3.8-2.5
				c1.2-1,2.3-2.1,3.3-3.4c1-1.2,1.9-2.5,2.7-3.7l1.1,0.9c-1.1,1.9-2.3,3.5-3.5,4.9s-2.5,2.6-3.8,3.5c-1.3,0.9-2.6,1.7-4,2.1
				c-1.4,0.5-2.7,0.7-4,0.7c-1,0-2-0.2-2.9-0.5c-0.9-0.3-1.8-0.8-2.5-1.4s-1.3-1.4-1.7-2.4s-0.6-2.2-0.6-3.5c0-1.6,0.2-3.1,0.7-4.5
				c0.5-1.4,1.1-2.7,1.8-3.9s1.7-2.3,2.7-3.3c1-1,2.1-1.8,3.2-2.5c1.1-0.7,2.2-1.2,3.3-1.6c1.1-0.4,2.2-0.5,3.2-0.5
				c1,0,1.8,0.1,2.5,0.4c0.6,0.3,1.1,0.6,1.5,1c0.4,0.4,0.6,0.8,0.8,1.2c0.1,0.4,0.2,0.8,0.2,1.1c0,0.5-0.1,1-0.2,1.6
				c-0.1,0.6-0.3,1.1-0.6,1.5s-0.6,0.8-1,1.2c-0.4,0.3-0.8,0.5-1.2,0.5c-0.5,0-0.8-0.1-1.2-0.4c-0.3-0.3-0.5-0.7-0.5-1.1
				c0,0,0-0.1,0-0.4c0-0.2,0.1-0.5,0.3-0.7c0.2-0.3,0.4-0.5,0.8-0.7c0.3-0.2,0.8-0.3,1.4-0.3h0.4C194.4,49.9,194.5,49.6,194.5,49.2z
				"/>
		</g>
		<path class="st2" d="M71.2,14.4c0-0.1,0-0.2,0-0.3l0,0l0-0.3c0-0.1,0-0.2,0-0.3c-0.1-0.4-0.2-0.7-0.4-1c-0.3-0.5-0.6-0.9-1.1-1.3
			c-0.7-0.6-1.4-1-2-1.2c-0.6-0.3-1.2-0.5-1.8-0.7c-1-0.3-2-0.6-3.4-0.9c-1.9-0.4-3.8-0.7-5.8-1c-1.5-0.2-3-0.3-4.4-0.4
			C51.1,7,50.2,7,49.4,6.9l-1,0c-1,0-1.6,0.2-1.7,0.9c0,0.5,0.7,0.9,2.1,1.1c17,2,18.2,4.6,17.6,5.3C64.9,16,56,16.5,48.1,16.1
			c-2.5-0.1-5.2-0.3-8-0.6c-1.3-0.2-2.6-0.4-3.9-0.6c-1.3-0.2-2.5-0.5-3.6-0.8c-0.9-0.3-1.9-0.6-2.7-1.1c0.4-0.4,0.7-0.9,1-1.5
			c0.3-0.7,0.1-1.5-0.4-2c-0.5-0.5-1.3-0.7-2-0.4c-0.6,0.3-1.1,0.5-1.5,0.9c-0.5,0.3-0.9,0.7-1.2,1.2c0,0-0.1,0.1-0.1,0.2l-0.3,0.5
			c-0.3,0.5-0.7,1.2-1.2,2.1c-1.4,2.6-2.6,5.1-3.6,7.6c-1.5,3.9-2.5,7.8-3,11.6c-0.3,2.3-0.3,4.6-0.1,6.9c0.2,2.5,0.7,4.8,1.5,7.1
			c0.1,0.2,0.1,0.3,0.2,0.5c0.1,0.4,0.3,0.8,0.5,1.2l0.7,1.5c0,0,0,0.1,0.1,0.1l0.8,1.4c0.2,0.3,0.4,0.6,0.6,0.9l0.5,0.7
			c1.4,1.9,3,3.6,4.7,5.1l0.4,0.3c0.3,0.2,0.5,0.5,0.9,0.7l1.2,0.9c0.6,0.5,1.3,0.9,1.9,1.3c0.2,0.2,0.5,0.3,0.7,0.5
			c0.3,0.2,0.6,0.4,0.9,0.6c0.1,0.1,0.3,0.1,0.4,0.3c0.1,0.1,0.3,0.2,0.4,0.2c0.3,0.2,0.6,0.3,0.9,0.5c0.2,0.1,0.5,0.2,0.7,0.3
			c0.6,0.3,1.2,0.6,1.7,0.8c1.6,0.7,3.2,1.2,4.6,1.6c0,0,0.1,0,0.1,0c1.1,0.3,1.9,1.1,2.1,2.2c0.6,2.6,1,6.4,0.3,10.5
			c-4.8-0.1-9.3,0.3-12.7,1.1c-4.6,1-7,2.7-7.1,5.1c-0.1,2.3,2.2,4.2,6.7,5.6c3.7,1.1,8.6,1.8,13.9,2c0.4,0,1.1,0,2.2,0
			c5.6,0,18.7-0.6,18.9-6.1c0.2-5.2-11.4-6.9-16.9-7.3c0-0.1,0-0.3,0-0.4c0.3-8.6,0.6-11.7,0.7-12.8c0.1-0.6-0.1-1.2-0.4-1.7
			c-0.4-0.5-0.9-0.8-1.6-0.9l-1.9-0.2l-0.3,0c-0.8-0.1-1.9-0.3-3.1-0.7c-1.3-0.4-2.7-0.8-4.1-1.5c-0.5-0.2-1-0.5-1.5-0.7
			c-0.2-0.1-0.5-0.3-0.7-0.4c-0.2-0.1-0.4-0.2-0.6-0.4c-0.2-0.1-0.3-0.2-0.4-0.2c-0.2-0.1-0.3-0.2-0.5-0.3c-0.2-0.1-0.4-0.2-0.6-0.4
			c-0.2-0.2-0.5-0.3-0.8-0.5c-0.5-0.4-1.1-0.7-1.6-1.1l-1.2-0.9c-0.2-0.2-0.5-0.4-0.7-0.6l-0.5-0.4c-1.5-1.3-2.8-2.8-4-4.4l-0.5-0.7
			c-0.1-0.2-0.2-0.3-0.3-0.5L24.4,49l-0.9-1.9c-0.1-0.3-0.2-0.6-0.3-0.8C23.1,46,23,45.8,23,45.7c-0.6-1.9-1-3.9-1.2-6
			c-0.1-2,0-4,0.2-6c0.5-3.4,1.5-7,2.9-10.5c0.9-2.1,1.9-4.2,3-6.3c1.1,0.6,2.2,1.1,3.2,1.4c2.3,0.8,5,1.4,8.2,1.9
			c2.5,0.4,5.3,0.6,8.5,0.8c3.3,0.1,6,0,8.5-0.2c3.2-0.3,5.9-0.7,8.4-1.3c1.3-0.4,2.8-0.8,4.2-1.7c0.6-0.4,1.7-1.2,2.1-2.7
			c0-0.1,0-0.1,0-0.2l0-0.1l0,0C71.2,14.6,71.2,14.5,71.2,14.4z M45.3,89c-0.3,0-0.7,0-1,0l3.5-0.5c1.2-0.2,2-1.2,1.9-2.4
			c0-0.3-0.3-3.1-0.3-4.3c7.2,0.7,13.3,3.1,12.5,5.2C61.2,88.3,54.4,89.7,45.3,89z"/>
	</g>
</g>
</svg>
